HIERARCHY
ROOT hip
{
  OFFSET 0 90.174 2.4664
  CHANNELS 6 Xposition Yposition Zposition Zrotation Xrotation Yrotation
  JOINT abdomen
  {
    OFFSET 0 -1.186 -1.5018
    CHANNELS 6 Xposition Yposition Zposition Zrotation Xrotation Yrotation
    JOINT abdomen2
    {
      OFFSET 0 9.964 0.2134
      CHANNELS 6 Xposition Yposition Zposition Zrotation Xrotation Yrotation
      JOINT chest
      {
        OFFSET 0 13.134 -3.2573
        CHANNELS 6 Xposition Yposition Zposition Zrotation Xrotation Yrotation
        JOINT neck
        {
          OFFSET 0 20.686 -1.6905
          CHANNELS 6 Xposition Yposition Zposition Zrotation Xrotation Yrotation
          JOINT head
          {
            OFFSET 0 7.238 -0.1237
            CHANNELS 6 Xposition Yposition Zposition Zrotation Xrotation Yrotation
            End Site
            {
              OFFSET 0 0 0
            }
          }
        }
        JOINT lCollar
        {
          OFFSET 1.7069 20.075 5.0056
          CHANNELS 6 Xposition Yposition Zposition Zrotation Xrotation Yrotation
          JOINT lShldr
          {
            OFFSET 13.6458 -0.047 -4.849
            CHANNELS 6 Xposition Yposition Zposition Zrotation Xrotation Yrotation
            JOINT lForeArm
            {
              OFFSET 28.3255 -0.9759 2.2888
              CHANNELS 6 Xposition Yposition Zposition Zrotation Xrotation Yrotation
              JOINT lHand
              {
                OFFSET 22.1583 -0.53 10.8316
                CHANNELS 6 Xposition Yposition Zposition Zrotation Xrotation Yrotation
                JOINT lThumb1
                {
                  OFFSET 0.786 0.112 2.5817
                  CHANNELS 6 Xposition Yposition Zposition Zrotation Xrotation Yrotation
                  JOINT lThumb2
                  {
                    OFFSET 0.3601 -0.878 4.2331
                    CHANNELS 6 Xposition Yposition Zposition Zrotation Xrotation Yrotation
                    JOINT lThumb2_End
                    {
                      OFFSET 1.8127 -1.216 2.2227
                      CHANNELS 6 Xposition Yposition Zposition Zrotation Xrotation Yrotation
                      End Site
                      {
                        OFFSET 0.0181 -0.0122 0.0222
                      }
                    }
                  }
                }
                JOINT lCarpal1
                {
                  OFFSET 0.9571 1.114 1.7695
                  CHANNELS 6 Xposition Yposition Zposition Zrotation Xrotation Yrotation
                  JOINT lIndex1
                  {
                    OFFSET 4.1246 0.487 4.1451
                    CHANNELS 6 Xposition Yposition Zposition Zrotation Xrotation Yrotation
                    JOINT lIndex2
                    {
                      OFFSET 3.4052 -1.454 2.7682
                      CHANNELS 6 Xposition Yposition Zposition Zrotation Xrotation Yrotation
                      JOINT lIndex2_End
                      {
                        OFFSET 1.4531 -1.795 1.2713
                        CHANNELS 6 Xposition Yposition Zposition Zrotation Xrotation Yrotation
                        End Site
                        {
                          OFFSET 0.0145 -0.0179 0.0127
                        }
                      }
                    }
                  }
                  JOINT lMid1
                  {
                    OFFSET 5.6954 0.21 2.1184
                    CHANNELS 6 Xposition Yposition Zposition Zrotation Xrotation Yrotation
                    JOINT lMid2
                    {
                      OFFSET 3.9766 -1.54 2.3863
                      CHANNELS 6 Xposition Yposition Zposition Zrotation Xrotation Yrotation
                      JOINT lMid2_End
                      {
                        OFFSET 1.4042 -1.926 1.125
                        CHANNELS 6 Xposition Yposition Zposition Zrotation Xrotation Yrotation
                        End Site
                        {
                          OFFSET 0.014 -0.0193 0.0113
                        }
                      }
                    }
                  }
                }
                JOINT lCarpal2
                {
                  OFFSET 2.0956 0.66 -0.3894
                  CHANNELS 6 Xposition Yposition Zposition Zrotation Xrotation Yrotation
                  JOINT lRing1
                  {
                    OFFSET 5.0395 -0.09 2.4971
                    CHANNELS 6 Xposition Yposition Zposition Zrotation Xrotation Yrotation
                    JOINT lRing2
                    {
                      OFFSET 3.7921 -1.552 1.4806
                      CHANNELS 6 Xposition Yposition Zposition Zrotation Xrotation Yrotation
                      JOINT lRing2_End
                      {
                        OFFSET 1.4655 -1.808 0.9609
                        CHANNELS 6 Xposition Yposition Zposition Zrotation Xrotation Yrotation
                        End Site
                        {
                          OFFSET 0.0147 -0.0181 0.0096
                        }
                      }
                    }
                  }
                  JOINT lPinky1
                  {
                    OFFSET 4.9141 -1.269 0.3591
                    CHANNELS 6 Xposition Yposition Zposition Zrotation Xrotation Yrotation
                    JOINT lPinky2
                    {
                      OFFSET 3.1477 -1.685 0.8462
                      CHANNELS 6 Xposition Yposition Zposition Zrotation Xrotation Yrotation
                      JOINT lPinky2_End
                      {
                        OFFSET 0.8055 -1.585 0.7955
                        CHANNELS 6 Xposition Yposition Zposition Zrotation Xrotation Yrotation
                        End Site
                        {
                          OFFSET 0.0081 -0.0158 0.008
                        }
                      }
                    }
                  }
                }
              }
            }
          }
        }
        JOINT rCollar
        {
          OFFSET -1.7069 20.075 5.0056
          CHANNELS 6 Xposition Yposition Zposition Zrotation Xrotation Yrotation
          JOINT rShldr
          {
            OFFSET -13.6458 -0.047 -4.849
            CHANNELS 6 Xposition Yposition Zposition Zrotation Xrotation Yrotation
            JOINT rForeArm
            {
              OFFSET -28.3255 -0.9759 2.2888
              CHANNELS 6 Xposition Yposition Zposition Zrotation Xrotation Yrotation
              JOINT rHand
              {
                OFFSET -22.1583 -0.53 10.8316
                CHANNELS 6 Xposition Yposition Zposition Zrotation Xrotation Yrotation
                JOINT rThumb1
                {
                  OFFSET -0.786 0.112 2.5817
                  CHANNELS 6 Xposition Yposition Zposition Zrotation Xrotation Yrotation
                  JOINT rThumb2
                  {
                    OFFSET -0.3601 -0.878 4.2331
                    CHANNELS 6 Xposition Yposition Zposition Zrotation Xrotation Yrotation
                    JOINT rThumb2_End
                    {
                      OFFSET -1.8127 -1.216 2.2227
                      CHANNELS 6 Xposition Yposition Zposition Zrotation Xrotation Yrotation
                      End Site
                      {
                        OFFSET -0.0181 -0.0122 0.0222
                      }
                    }
                  }
                }
                JOINT rCarpal1
                {
                  OFFSET -0.9571 1.114 1.7695
                  CHANNELS 6 Xposition Yposition Zposition Zrotation Xrotation Yrotation
                  JOINT rIndex1
                  {
                    OFFSET -4.1246 0.487 4.1451
                    CHANNELS 6 Xposition Yposition Zposition Zrotation Xrotation Yrotation
                    JOINT rIndex2
                    {
                      OFFSET -3.4052 -1.454 2.7682
                      CHANNELS 6 Xposition Yposition Zposition Zrotation Xrotation Yrotation
                      JOINT rIndex2_End
                      {
                        OFFSET -1.4531 -1.795 1.2713
                        CHANNELS 6 Xposition Yposition Zposition Zrotation Xrotation Yrotation
                        End Site
                        {
                          OFFSET -0.0145 -0.018 0.0127
                        }
                      }
                    }
                  }
                  JOINT rMid1
                  {
                    OFFSET -5.6954 0.21 2.1184
                    CHANNELS 6 Xposition Yposition Zposition Zrotation Xrotation Yrotation
                    JOINT rMid2
                    {
                      OFFSET -3.9766 -1.54 2.3863
                      CHANNELS 6 Xposition Yposition Zposition Zrotation Xrotation Yrotation
                      JOINT rMid2_End
                      {
                        OFFSET -1.4042 -1.926 1.125
                        CHANNELS 6 Xposition Yposition Zposition Zrotation Xrotation Yrotation
                        End Site
                        {
                          OFFSET -0.014 -0.0193 0.0113
                        }
                      }
                    }
                  }
                }
                JOINT rCarpal2
                {
                  OFFSET -2.0956 0.66 -0.3894
                  CHANNELS 6 Xposition Yposition Zposition Zrotation Xrotation Yrotation
                  JOINT rRing1
                  {
                    OFFSET -5.0395 -0.09 2.4971
                    CHANNELS 6 Xposition Yposition Zposition Zrotation Xrotation Yrotation
                    JOINT rRing2
                    {
                      OFFSET -3.7921 -1.552 1.4806
                      CHANNELS 6 Xposition Yposition Zposition Zrotation Xrotation Yrotation
                      JOINT rRing2_End
                      {
                        OFFSET -1.4655 -1.808 0.9609
                        CHANNELS 6 Xposition Yposition Zposition Zrotation Xrotation Yrotation
                        End Site
                        {
                          OFFSET -0.0147 -0.0181 0.0096
                        }
                      }
                    }
                  }
                  JOINT rPinky1
                  {
                    OFFSET -4.9141 -1.269 0.3592
                    CHANNELS 6 Xposition Yposition Zposition Zrotation Xrotation Yrotation
                    JOINT rPinky2
                    {
                      OFFSET -3.1477 -1.685 0.8462
                      CHANNELS 6 Xposition Yposition Zposition Zrotation Xrotation Yrotation
                      JOINT rPinky2_End
                      {
                        OFFSET -0.8055 -1.585 0.7955
                        CHANNELS 6 Xposition Yposition Zposition Zrotation Xrotation Yrotation
                        End Site
                        {
                          OFFSET -0.0081 -0.0158 0.008
                        }
                      }
                    }
                  }
                }
              }
            }
          }
        }
      }
    }
  }
  JOINT lThigh
  {
    OFFSET 8.367 -8.2066 0.5982
    CHANNELS 6 Xposition Yposition Zposition Zrotation Xrotation Yrotation
    JOINT lShin
    {
      OFFSET 2.1923 -43.463 -0.4932
      CHANNELS 6 Xposition Yposition Zposition Zrotation Xrotation Yrotation
      JOINT lFoot
      {
        OFFSET 0.7333 -45.8593 -2.6451
        CHANNELS 6 Xposition Yposition Zposition Zrotation Xrotation Yrotation
        End Site
        {
          OFFSET 2.6618 -4.2699 12.3931
        }
      }
    }
  }
  JOINT rThigh
  {
    OFFSET -8.367 -8.2066 0.5982
    CHANNELS 6 Xposition Yposition Zposition Zrotation Xrotation Yrotation
    JOINT rShin
    {
      OFFSET -2.1923 -43.463 -0.4931
      CHANNELS 6 Xposition Yposition Zposition Zrotation Xrotation Yrotation
      JOINT rFoot
      {
        OFFSET -0.7333 -45.8593 -2.6451
        CHANNELS 6 Xposition Yposition Zposition Zrotation Xrotation Yrotation
        End Site
        {
          OFFSET -2.6618 -4.2699 12.3931
        }
      }
    }
  }
}
MOTION
Frames:	4
Frame Time:	0.0333333
42.2175 20.8484 -12.1188 -180 -85.9956 -180 0 -1.186 -1.5018 -1.84889 0.764465 -0.0677087 7.10543e-015 9.964 0.2134 -3.69737 1.53073 -0.110727 0 13.134 -3.2573 -3.69737 1.5307 -0.11073 7.10543e-015 20.686 -1.6905 -18.7896 -3.01302 0.00427797 -3.55271e-015 7.238 -0.1237 -1.21526 -7.93744 1.04307 1.7069 20.075 5.0056 -0.108726 1.96314 -0.148959 13.6458 -0.047 -4.849 -16.5186 48.9388 53.0901 28.3255 -0.9759 2.2888 27.9696 31.4424 -23.9352 22.1583 -0.53 10.8316 -0.943916 -6.0843 3.79914 0.786 0.112 2.5817 -6.68154e-007 6.09091e-008 2.69871e-007 0.3601 -0.878 4.2331 6.74165e-010 -6.39937e-008 8.46701e-007 1.8127 -1.216 2.2227 2.95692e-015 7.95139e-016 -1.59028e-015 0.9571 1.114 1.7695 2.38542e-015 1.98785e-016 -0 4.1246 0.487 4.1451 -6.68154e-007 6.09091e-008 2.69871e-007 3.4052 -1.454 2.7682 6.74169e-010 -6.39937e-008 8.46701e-007 1.4531 -1.795 1.2713 3.50358e-015 5.96354e-016 3.18055e-015 5.6954 0.21 2.1184 -6.68154e-007 6.09091e-008 2.69871e-007 3.9766 -1.54 2.3863 6.74169e-010 -6.39937e-008 8.46701e-007 1.4042 -1.926 1.125 3.50358e-015 5.96354e-016 3.18055e-015 2.0956 0.66 -0.3894 2.38542e-015 1.98785e-016 -0 5.0395 -0.09 2.4971 -6.68154e-007 6.09091e-008 2.69871e-007 3.7921 -1.552 1.4806 6.74169e-010 -6.39937e-008 8.46701e-007 1.4655 -1.808 0.9609 3.50358e-015 5.96354e-016 3.18055e-015 4.9141 -1.269 0.3591 -6.68154e-007 6.09091e-008 2.69871e-007 3.1477 -1.685 0.8462 6.74169e-010 -6.39937e-008 8.46701e-007 0.8055 -1.585 0.7955 3.50358e-015 5.96354e-016 3.18055e-015 -1.7069 20.075 5.0056 -4.84858 2.41853 -14.4219 -13.6458 -0.047 -4.849 -1.47695 53.3439 -6.66277 -28.3255 -0.9759 2.2888 -10.4079 41.1745 -7.92943 -22.1583 -0.53 10.8316 -2.39686 -7.024 19.8273 -0.786 0.112 2.5817 -3.97569e-016 -1.49089e-016 1.59028e-015 -0.3601 -0.878 4.2331 -2.19906e-015 -3.47873e-016 -0 -1.8127 -1.216 2.2227 -1.40392e-015 -1.04362e-015 -0 -0.9571 1.114 1.7695 -3.97569e-016 4.47266e-016 1.59028e-015 -4.1246 0.487 4.1451 -1.3418e-015 -5.96354e-016 6.36111e-015 -3.4052 -1.454 2.7682 -2.11209e-015 -1.19271e-015 -0 -1.4531 -1.795 1.2713 -6.33626e-016 -1.78906e-015 -0 -5.6954 0.21 2.1184 -1.3418e-015 -5.96354e-016 6.36111e-015 -3.9766 -1.54 2.3863 -2.11209e-015 -1.19271e-015 -0 -1.4042 -1.926 1.125 -6.33626e-016 -1.78906e-015 -0 -2.0956 0.66 -0.3894 -3.97569e-016 4.47266e-016 1.59028e-015 -5.0395 -0.09 2.4971 -1.3418e-015 -5.96354e-016 6.36111e-015 -3.7921 -1.552 1.4806 -2.11209e-015 -1.19271e-015 -0 -1.4655 -1.808 0.9609 -6.33626e-016 -1.78906e-015 -0 -4.9141 -1.269 0.3592 -1.3418e-015 -5.96354e-016 6.36111e-015 -3.1477 -1.685 0.8462 -2.11209e-015 -1.19271e-015 -0 -0.8055 -1.585 0.7955 -6.33626e-016 -1.78906e-015 -0 8.367 -8.2066 0.5982 57.2757 -19.302 34.5879 2.1923 -43.463 -0.4932 109.019 76.0888 -114.061 0.7333 -45.8593 -2.6451 4.29887 8.61393 3.21902 -8.367 -8.2066 0.5982 -57.7246 -19.1005 -36.3873 -2.1923 -43.463 -0.4931 -114.663 75.355 119.524 -0.7333 -45.8593 -2.6451 -6.10342 7.15734 -2.96403 
42.2173 20.9206 -12.1137 -180 -85.9956 -180 0 -1.186 -1.5018 -1.8488 0.784663 -0.065884 7.10543e-015 9.964 0.2134 -3.69723 1.57104 -0.106429 0 13.134 -3.2573 -3.69723 1.57102 -0.106429 7.10543e-015 20.686 -1.6905 -18.7981 -3.46379 -0.149385 0 7.238 -0.1237 -1.21416 -7.5369 1.05169 1.7069 20.075 5.0056 0.247321 2.00817 0.256204 13.6458 -0.047 -4.849 -16.2589 49.0742 52.5228 28.3255 -0.9759 2.2888 28.356 31.1069 -24.5531 22.1583 -0.53 10.8316 -1.35554 -6.05701 4.00506 0.786 0.112 2.5817 8.24445e-007 -3.00712e-007 -1.66385e-008 0.3601 -0.878 4.2331 -8.24445e-007 3.00712e-007 1.66385e-008 1.8127 -1.216 2.2227 8.24445e-007 -3.00712e-007 -1.66385e-008 0.9571 1.114 1.7695 -3.47873e-016 0 1.59028e-015 4.1246 0.487 4.1451 8.24445e-007 -3.00712e-007 -1.66385e-008 3.4052 -1.454 2.7682 -8.24445e-007 3.00712e-007 1.66385e-008 1.4531 -1.795 1.2713 8.24445e-007 -3.00712e-007 -1.66385e-008 5.6954 0.21 2.1184 8.24445e-007 -3.00712e-007 -1.66385e-008 3.9766 -1.54 2.3863 -8.24445e-007 3.00712e-007 1.66385e-008 1.4042 -1.926 1.125 8.24445e-007 -3.00712e-007 -1.66385e-008 2.0956 0.66 -0.3894 -3.47873e-016 0 1.59028e-015 5.0395 -0.09 2.4971 8.24445e-007 -3.00712e-007 -1.66385e-008 3.7921 -1.552 1.4806 -8.24445e-007 3.00712e-007 1.66385e-008 1.4655 -1.808 0.9609 8.24445e-007 -3.00712e-007 -1.66385e-008 4.9141 -1.269 0.3591 8.24445e-007 -3.00712e-007 -1.66385e-008 3.1477 -1.685 0.8462 -8.24445e-007 3.00712e-007 1.66385e-008 0.8055 -1.585 0.7955 8.24445e-007 -3.00712e-007 -1.66385e-008 -1.7069 20.075 5.0056 -4.84853 2.41851 -14.4219 -13.6458 -0.047 -4.849 -1.47695 53.3439 -6.66277 -28.3255 -0.9759 2.2888 -10.4079 41.1745 -7.92943 -22.1583 -0.53 10.8316 -2.27576 -7.09268 19.9049 -0.786 0.112 2.5817 3.62782e-015 1.98785e-016 3.18055e-015 -0.3601 -0.878 4.2331 -2.76558e-008 2.11174e-007 -1.38871e-008 -1.8127 -1.216 2.2227 -5.34234e-016 2.98177e-016 1.59028e-015 -0.9571 1.114 1.7695 2.03754e-015 -1.98785e-016 3.18055e-015 -4.1246 0.487 4.1451 3.57812e-015 -2.98177e-016 7.95139e-015 -3.4052 -1.454 2.7682 -2.76558e-008 2.11174e-007 -1.38871e-008 -1.4531 -1.795 1.2713 -2.33572e-015 4.47266e-016 -0 -5.6954 0.21 2.1184 3.57812e-015 -2.98177e-016 7.95139e-015 -3.9766 -1.54 2.3863 -2.76558e-008 2.11174e-007 -1.38871e-008 -1.4042 -1.926 1.125 -2.33572e-015 4.47266e-016 -0 -2.0956 0.66 -0.3894 2.03754e-015 -1.98785e-016 3.18055e-015 -5.0395 -0.09 2.4971 3.57812e-015 -2.98177e-016 7.95139e-015 -3.7921 -1.552 1.4806 -2.76558e-008 2.11174e-007 -1.38871e-008 -1.4655 -1.808 0.9609 -2.33572e-015 4.47266e-016 -0 -4.9141 -1.269 0.3592 3.57812e-015 -2.98177e-016 7.95139e-015 -3.1477 -1.685 0.8462 -2.76558e-008 2.11174e-007 -1.38871e-008 -0.8055 -1.585 0.7955 -2.33572e-015 4.47266e-016 -0 8.367 -8.2066 0.5982 57.4078 -19.1762 34.7275 2.1923 -43.463 -0.4932 109.011 76.0899 -114.061 0.7333 -45.8593 -2.6451 4.42686 8.59302 3.08397 -8.367 -8.2066 0.5982 -57.9545 -18.9361 -36.6381 -2.1923 -43.463 -0.4931 -114.655 75.3566 119.529 -0.7333 -45.8593 -2.6451 -6.3271 7.13765 -2.74765 
42.2171 20.9928 -12.1087 -180 -85.9956 -180 0 -1.186 -1.5018 -1.84871 0.804842 -0.0640587 0 9.964 0.2134 -3.69706 1.61134 -0.102127 -1.42109e-014 13.134 -3.2573 -3.69706 1.61132 -0.102128 7.10543e-015 20.686 -1.6905 -18.8081 -3.91441 -0.303225 7.10543e-015 7.238 -0.1237 -1.21313 -7.13636 1.0603 1.7069 20.075 5.0056 0.602962 2.05576 0.661052 13.6458 -0.047 -4.849 -15.9964 49.2078 51.953 28.3255 -0.9759 2.2888 28.7367 30.768 -25.166 22.1583 -0.53 10.8316 -1.76721 -6.0312 4.21115 0.786 0.112 2.5817 9.19379e-016 3.97569e-016 -0 0.3601 -0.878 4.2331 -6.95746e-016 5.96354e-016 -0 1.8127 -1.216 2.2227 -2.26118e-015 1.98785e-016 1.59028e-015 0.9571 1.114 1.7695 9.19379e-016 1.98785e-016 -0 4.1246 0.487 4.1451 -5.71506e-016 -1.98785e-016 6.36111e-015 3.4052 -1.454 2.7682 -2.08724e-015 0 1.59028e-015 1.4531 -1.795 1.2713 -3.97569e-016 0 -0 5.6954 0.21 2.1184 -5.71506e-016 -1.98785e-016 6.36111e-015 3.9766 -1.54 2.3863 -2.08724e-015 0 1.59028e-015 1.4042 -1.926 1.125 -3.97569e-016 0 -0 2.0956 0.66 -0.3894 9.19379e-016 1.98785e-016 -0 5.0395 -0.09 2.4971 -5.71506e-016 -1.98785e-016 6.36111e-015 3.7921 -1.552 1.4806 -2.08724e-015 0 1.59028e-015 1.4655 -1.808 0.9609 -3.97569e-016 0 -0 4.9141 -1.269 0.3591 -5.71506e-016 -1.98785e-016 6.36111e-015 3.1477 -1.685 0.8462 -2.08724e-015 0 1.59028e-015 0.8055 -1.585 0.7955 -3.97569e-016 0 -0 -1.7069 20.075 5.0056 -4.84855 2.41851 -14.4219 -13.6458 -0.047 -4.849 -1.47694 53.3439 -6.66278 -28.3255 -0.9759 2.2888 -10.4079 41.1745 -7.92943 -22.1583 -0.53 10.8316 -2.15455 -7.16119 19.9826 -0.786 0.112 2.5817 -2.17421e-015 -9.93923e-017 7.95139e-015 -0.3601 -0.878 4.2331 1.08089e-015 3.97569e-016 1.59028e-015 -1.8127 -1.216 2.2227 -5.8393e-016 -6.4605e-016 1.59028e-015 -0.9571 1.114 1.7695 -2.16178e-015 9.93923e-017 4.77083e-015 -4.1246 0.487 4.1451 -5.09386e-016 -3.47873e-016 6.36111e-015 -3.4052 -1.454 2.7682 -2.23633e-015 -1.49089e-016 4.77083e-015 -1.4531 -1.795 1.2713 2.47238e-015 -9.93923e-017 1.59028e-015 -5.6954 0.21 2.1184 -5.09386e-016 -3.47873e-016 6.36111e-015 -3.9766 -1.54 2.3863 -2.23633e-015 -1.49089e-016 4.77083e-015 -1.4042 -1.926 1.125 2.47238e-015 -9.93923e-017 1.59028e-015 -2.0956 0.66 -0.3894 -2.16178e-015 9.93923e-017 4.77083e-015 -5.0395 -0.09 2.4971 -5.09386e-016 -3.47873e-016 6.36111e-015 -3.7921 -1.552 1.4806 -2.23633e-015 -1.49089e-016 4.77083e-015 -1.4655 -1.808 0.9609 2.47238e-015 -9.93923e-017 1.59028e-015 -4.9141 -1.269 0.3592 -5.09386e-016 -3.47873e-016 6.36111e-015 -3.1477 -1.685 0.8462 -2.23633e-015 -1.49089e-016 4.77083e-015 -0.8055 -1.585 0.7955 2.47238e-015 -9.93923e-017 1.59028e-015 8.367 -8.2066 0.5982 57.5397 -19.0501 34.8667 2.1923 -43.463 -0.4932 109.002 76.0911 -114.061 0.7333 -45.8593 -2.6451 4.55477 8.57188 2.94895 -8.367 -8.2066 0.5982 -58.1834 -18.7708 -36.8879 -2.1923 -43.463 -0.4931 -114.647 75.3582 119.534 -0.7333 -45.8593 -2.6451 -6.55063 7.11724 -2.5314 
42.2169 21.0649 -12.1037 -180 -85.9956 -180 0 -1.186 -1.5018 -1.84861 0.825006 -0.0622321 0 9.964 0.2134 -3.6969 1.6516 -0.0978275 0 13.134 -3.2573 -3.6969 1.65163 -0.0978237 0 20.686 -1.6905 -18.8191 -4.36506 -0.457152 0 7.238 -0.1237 -1.21215 -6.73584 1.06889 1.7069 20.075 5.0056 0.958245 2.1058 1.06555 13.6458 -0.047 -4.849 -15.7313 49.3397 51.3807 28.3255 -0.9759 2.2888 29.1118 30.4257 -25.7741 22.1583 -0.53 10.8316 -2.17891 -6.00686 4.4174 0.786 0.112 2.5817 1.79329e-007 1.49274e-007 4.56711e-007 0.3601 -0.878 4.2331 6.90142e-007 -9.05326e-008 4.05477e-007 1.8127 -1.216 2.2227 1.36664e-015 5.96354e-016 -1.59028e-015 0.9571 1.114 1.7695 2.68359e-015 0 -0 4.1246 0.487 4.1451 1.79329e-007 1.49274e-007 4.56711e-007 3.4052 -1.454 2.7682 6.90142e-007 -9.05326e-008 4.05477e-007 1.4531 -1.795 1.2713 1.39149e-015 7.95139e-016 -1.59028e-015 5.6954 0.21 2.1184 1.79329e-007 1.49274e-007 4.56711e-007 3.9766 -1.54 2.3863 6.90142e-007 -9.05326e-008 4.05477e-007 1.4042 -1.926 1.125 1.39149e-015 7.95139e-016 -1.59028e-015 2.0956 0.66 -0.3894 2.68359e-015 0 -0 5.0395 -0.09 2.4971 1.79329e-007 1.49274e-007 4.56711e-007 3.7921 -1.552 1.4806 6.90142e-007 -9.05326e-008 4.05477e-007 1.4655 -1.808 0.9609 1.39149e-015 7.95139e-016 -1.59028e-015 4.9141 -1.269 0.3591 1.79329e-007 1.49274e-007 4.56711e-007 3.1477 -1.685 0.8462 6.90142e-007 -9.05326e-008 4.05477e-007 0.8055 -1.585 0.7955 1.39149e-015 7.95139e-016 -1.59028e-015 -1.7069 20.075 5.0056 -4.84853 2.41849 -14.4219 -13.6458 -0.047 -4.849 -1.47694 53.3439 -6.66277 -28.3255 -0.9759 2.2888 -10.4079 41.1745 -7.92943 -22.1583 -0.53 10.8316 -2.03323 -7.22954 20.0605 -0.786 0.112 2.5817 3.09359e-015 -9.93923e-016 -3.18055e-015 -0.3601 -0.878 4.2331 1.41634e-015 -6.4605e-016 -7.95139e-015 -1.8127 -1.216 2.2227 2.96935e-015 9.93923e-016 -1.59028e-015 -0.9571 1.114 1.7695 1.49089e-015 -8.44835e-016 -0 -4.1246 0.487 4.1451 1.46604e-015 -7.95139e-016 -0 -3.4052 -1.454 2.7682 1.67725e-015 -9.93923e-016 -7.95139e-015 -1.4531 -1.795 1.2713 3.26752e-015 4.47266e-016 -1.59028e-015 -5.6954 0.21 2.1184 1.46604e-015 -7.95139e-016 -0 -3.9766 -1.54 2.3863 1.67725e-015 -9.93923e-016 -7.95139e-015 -1.4042 -1.926 1.125 3.26752e-015 4.47266e-016 -1.59028e-015 -2.0956 0.66 -0.3894 1.49089e-015 -8.44835e-016 -0 -5.0395 -0.09 2.4971 1.46604e-015 -7.95139e-016 -0 -3.7921 -1.552 1.4806 1.67725e-015 -9.93923e-016 -7.95139e-015 -1.4655 -1.808 0.9609 3.26752e-015 4.47266e-016 -1.59028e-015 -4.9141 -1.269 0.3592 1.46604e-015 -7.95139e-016 -0 -3.1477 -1.685 0.8462 1.67725e-015 -9.93923e-016 -7.95139e-015 -0.8055 -1.585 0.7955 3.26752e-015 4.47266e-016 -1.59028e-015 8.367 -8.2066 0.5982 57.671 -18.9238 35.0054 2.1923 -43.463 -0.4932 108.994 76.0922 -114.061 0.7333 -45.8593 -2.6451 4.68258 8.55052 2.814 -8.367 -8.2066 0.5982 -58.4112 -18.6045 -37.1366 -2.1923 -43.463 -0.4931 -114.639 75.3599 119.539 -0.7333 -45.8593 -2.6451 -6.77404 7.09607 -2.31527 
